# 3ds Max Wavefront OBJ Exporter v0.97b - (c)2007 guruware
# ŽŽœšµÄÎÄŒþ:10.07.2018 17:45:19

mtllib pants.mtl

#
# object trousers01
#

v  -7.5154 67.6385 11.2731
v  -7.5154 67.6385 -11.2731
v  7.5154 67.6385 -11.2731
v  7.5154 67.6385 11.2731
v  22.5462 67.6385 -11.2731
v  22.5462 67.6385 11.2731
v  -22.5462 67.6385 11.2731
v  -22.5462 67.6385 -11.2731
v  7.5154 77.6590 13.6083
v  -7.5154 77.6590 13.6083
v  22.5462 77.6590 -10.5902
v  22.5462 77.6590 11.9560
v  -7.5154 77.6590 -9.3893
v  7.5154 77.6590 -9.3893
v  -22.5462 77.6590 11.9560
v  -22.5462 77.6590 -10.5902
v  0.0000 -0.0000 11.2730
v  0.0000 -0.0000 -11.2732
v  22.5462 -0.0000 -11.2732
v  22.5462 -0.0000 11.2730
v  15.0307 71.3962 3.7577
v  15.0307 71.3962 -3.7577
v  7.5153 71.3962 -3.7577
v  7.5153 71.3962 3.7577
v  22.5462 30.0616 11.2731
v  0.0000 30.0615 11.2730
v  22.5462 37.5769 11.2731
v  -0.0000 37.5769 11.2731
v  -0.0000 45.0923 11.2731
v  22.5462 45.0923 11.2731
v  22.5461 67.6385 11.2731
v  -0.0000 67.6385 11.2731
v  0.0000 30.0616 -11.2731
v  0.0000 33.8193 -11.2731
v  -0.0000 45.0924 -11.2731
v  -0.0000 41.3347 -11.2731
v  -0.0000 67.6385 -11.2731
v  22.5462 30.0616 -11.2731
v  22.5462 33.8193 -11.2731
v  22.5462 41.3347 -11.2731
v  22.5462 37.5770 -11.2731
v  -0.0000 37.5770 -11.2731
v  22.5461 67.6385 -11.2731
v  22.5462 45.0924 -11.2731
v  -0.0000 -0.0000 11.2730
v  -22.5462 -0.0000 11.2730
v  -22.5462 -0.0000 -11.2732
v  -0.0000 -0.0000 -11.2732
v  -15.0307 71.3962 3.7577
v  -7.5153 71.3962 3.7577
v  -7.5153 71.3962 -3.7577
v  -15.0307 71.3962 -3.7577
v  -22.5462 30.0616 11.2730
v  0.0000 37.5769 11.2731
v  -22.5462 37.5769 11.2731
v  0.0000 45.0923 11.2731
v  -22.5462 45.0923 11.2731
v  0.0000 67.6385 11.2731
v  -22.5461 67.6385 11.2731
v  0.0000 41.3347 -11.2731
v  0.0000 45.0924 -11.2731
v  0.0000 67.6385 -11.2731
v  -22.5462 30.0616 -11.2731
v  -22.5462 33.8193 -11.2731
v  -22.5462 41.3347 -11.2731
v  0.0000 37.5770 -11.2731
v  -22.5462 37.5770 -11.2731
v  -22.5461 67.6385 -11.2731
v  -22.5462 45.0924 -11.2731
# 69 vertices

vn 0.0000 -1.0000 -0.0000
vn -0.0336 -0.1975 0.9797
vn 0.0000 -0.2270 0.9739
vn 0.0204 -0.1977 0.9800
vn -0.0529 -0.2266 0.9725
vn 1.0000 0.0000 -0.0000
vn -0.0246 0.1630 -0.9863
vn 0.0000 0.1848 -0.9828
vn 0.0149 0.1631 -0.9865
vn -0.0390 0.1846 -0.9820
vn -1.0000 0.0000 -0.0000
vn 0.0679 -0.1287 0.9894
vn 0.1090 -0.0676 0.9917
vn -0.0408 -0.1287 0.9908
vn 0.0000 -0.0680 0.9977
vn -0.0297 0.1123 -0.9932
vn 0.0000 0.0680 -0.9977
vn 0.0495 0.1123 -0.9924
vn 0.0795 0.0678 -0.9945
vn -0.0000 1.0000 0.0000
vn -0.0000 -0.0000 1.0000
vn -1.0000 -0.0000 -0.0000
vn 0.0000 0.0000 -1.0000
vn 1.0000 0.0000 0.0000
vn -0.0000 0.8944 0.4472
vn -0.4472 0.8944 0.0000
vn -0.0000 0.8944 -0.4472
vn 0.4472 0.8944 0.0000
vn 1.0000 -0.0000 0.0000
vn -0.0000 -1.0000 -0.0000
vn 0.0000 1.0000 0.0000
vn 0.0000 -0.0000 1.0000
vn 1.0000 -0.0000 -0.0000
vn -0.0000 0.0000 -1.0000
vn -1.0000 0.0000 0.0000
vn 0.0000 0.8944 0.4472
vn 0.0000 0.8944 -0.4472
vn -1.0000 -0.0000 0.0000
# 38 vertex normals

vt 0.5244 0.8801 0.0000
vt 0.5244 0.7762 0.0000
vt 0.5937 0.7762 0.0000
vt 0.5937 0.8801 0.0000
vt 0.6630 0.7762 0.0000
vt 0.6630 0.8801 0.0000
vt 0.4551 0.8801 0.0000
vt 0.4551 0.7762 0.0000
vt 0.7374 0.4571 0.0000
vt 0.8066 0.4571 0.0000
vt 0.8066 0.5032 0.0000
vt 0.7374 0.5032 0.0000
vt 0.9868 0.5032 0.0000
vt 0.8829 0.5032 0.0000
vt 0.8829 0.4571 0.0000
vt 0.9868 0.4571 0.0000
vt 0.4130 0.4571 0.0000
vt 0.4823 0.4571 0.0000
vt 0.4823 0.5032 0.0000
vt 0.4130 0.5032 0.0000
vt 0.6614 0.4571 0.0000
vt 0.6614 0.5032 0.0000
vt 0.5575 0.5032 0.0000
vt 0.5574 0.4571 0.0000
vt 0.8759 0.4571 0.0000
vt 0.8759 0.5032 0.0000
vt 0.6681 0.5032 0.0000
vt 0.6681 0.4571 0.0000
vt 0.3437 0.5032 0.0000
vt 0.3437 0.4571 0.0000
vt 0.5516 0.4571 0.0000
vt 0.5516 0.5032 0.0000
vt 0.4429 0.3418 0.0000
vt 0.4429 0.2378 0.0000
vt 0.5468 0.2378 0.0000
vt 0.5468 0.3418 0.0000
vt 0.5122 0.3834 0.0000
vt 0.5122 0.4180 0.0000
vt 0.4776 0.4180 0.0000
vt 0.4776 0.3834 0.0000
vt 0.8759 0.2798 0.0000
vt 0.7720 0.2798 0.0000
vt 0.7720 0.1413 0.0000
vt 0.8759 0.1413 0.0000
vt 0.8759 0.3145 0.0000
vt 0.7720 0.3145 0.0000
vt 0.7720 0.3491 0.0000
vt 0.8759 0.3491 0.0000
vt 0.8759 0.4530 0.0000
vt 0.7720 0.4530 0.0000
vt 0.7677 0.1413 0.0000
vt 0.7677 0.2798 0.0000
vt 0.6638 0.2798 0.0000
vt 0.6638 0.1413 0.0000
vt 0.7677 0.3145 0.0000
vt 0.6638 0.2972 0.0000
vt 0.7677 0.3491 0.0000
vt 0.6638 0.3491 0.0000
vt 0.6638 0.3318 0.0000
vt 0.7677 0.4530 0.0000
vt 0.6638 0.4530 0.0000
vt 0.6571 0.1413 0.0000
vt 0.6571 0.2798 0.0000
vt 0.5532 0.2798 0.0000
vt 0.5532 0.1413 0.0000
vt 0.6571 0.2972 0.0000
vt 0.5532 0.2972 0.0000
vt 0.5532 0.3318 0.0000
vt 0.5532 0.3145 0.0000
vt 0.6571 0.3145 0.0000
vt 0.6571 0.3318 0.0000
vt 0.6571 0.3491 0.0000
vt 0.6571 0.4530 0.0000
vt 0.5532 0.4530 0.0000
vt 0.5532 0.3491 0.0000
vt 0.9869 0.1413 0.0000
vt 0.9869 0.2798 0.0000
vt 0.8829 0.2798 0.0000
vt 0.8829 0.1413 0.0000
vt 0.9869 0.2972 0.0000
vt 0.8829 0.3145 0.0000
vt 0.9869 0.3145 0.0000
vt 0.9869 0.3318 0.0000
vt 0.9869 0.3491 0.0000
vt 0.9869 0.4530 0.0000
vt 0.8829 0.4530 0.0000
vt 0.8829 0.3491 0.0000
vt 0.4429 0.3487 0.0000
vt 0.5468 0.3487 0.0000
vt 0.4429 0.4527 0.0000
vt 0.5468 0.4527 0.0000
vt 0.6638 0.3145 0.0000
# 92 texture coords

g trousers01
usemtl Material__32
s off
f -69/-92/-38 -68/-91/-38 -67/-90/-38 -66/-89/-38 
f -65/-88/-38 -64/-87/-38 -66/-89/-38 -67/-90/-38 
f -69/-92/-38 -63/-86/-38 -62/-85/-38 -68/-91/-38 
f -69/-84/-37 -66/-83/-36 -61/-82/-35 -60/-81/-34 
f -59/-80/-33 -58/-79/-33 -64/-78/-33 -65/-77/-33 
f -67/-76/-32 -68/-75/-31 -57/-74/-30 -56/-73/-29 
f -63/-72/-28 -55/-71/-28 -54/-70/-28 -62/-69/-28 
f -64/-68/-27 -58/-67/-26 -61/-82/-35 -66/-83/-36 
f -55/-66/-25 -63/-65/-24 -69/-84/-37 -60/-81/-34 
f -67/-76/-32 -56/-73/-29 -59/-64/-23 -65/-63/-22 
f -62/-62/-21 -54/-61/-20 -57/-74/-30 -68/-75/-31 
f -53/-60/-38 -52/-59/-38 -51/-58/-38 -50/-57/-38 
f -49/-56/-19 -48/-55/-19 -47/-54/-19 -46/-53/-19 
f -45/-52/-18 -44/-51/-18 -53/-50/-18 
f -53/-50/-18 -50/-49/-18 -45/-52/-18 
f -44/-51/-18 -45/-52/-18 -43/-48/-18 -42/-47/-18 
f -41/-46/-18 -42/-47/-18 -43/-48/-18 -40/-45/-18 
f -39/-44/-18 -38/-43/-18 -41/-46/-18 -40/-45/-18 
f -53/-42/-17 -44/-41/-17 -37/-40/-17 
f -37/-40/-17 -52/-39/-17 -53/-42/-17 
f -44/-41/-17 -42/-38/-17 -36/-37/-17 -37/-40/-28 
f -41/-36/-28 -35/-35/-28 -34/-34/-28 -42/-38/-17 
f -38/-33/-17 -33/-32/-17 -35/-35/-17 -41/-36/-17 
f -52/-31/-16 -37/-30/-16 -32/-29/-16 
f -32/-29/-16 -51/-28/-16 -52/-31/-16 
f -37/-30/-16 -36/-27/-16 -31/-26/-16 
f -31/-26/-16 -32/-29/-16 -37/-30/-16 
f -30/-25/-16 -29/-24/-16 -28/-23/-16 -34/-22/-16 
f -35/-21/-16 -33/-20/-16 -27/-19/-16 -26/-18/-16 
f -51/-17/-33 -32/-16/-33 -45/-15/-33 
f -45/-15/-33 -50/-14/-33 -51/-17/-33 
f -32/-16/-33 -31/-13/-33 -43/-12/-33 
f -43/-12/-15 -45/-15/-15 -32/-16/-15 
f -29/-11/-15 -30/-10/-15 -43/-12/-15 
f -26/-9/-15 -27/-8/-15 -39/-7/-15 
f -39/-7/-15 -40/-6/-15 -26/-9/-15 
f -46/-53/-14 -38/-5/-14 -39/-4/-14 -49/-56/-14 
f -47/-54/-13 -33/-3/-13 -38/-5/-13 -46/-53/-13 
f -33/-3/-12 -47/-54/-12 -48/-55/-12 
f -48/-55/-12 -27/-2/-12 -33/-3/-12 
f -27/-2/-11 -48/-55/-11 -49/-56/-11 
f -49/-56/-11 -39/-4/-11 -27/-2/-11 
f -28/-23/-16 -29/-24/-16 -31/-26/-16 -36/-27/-16 
f -30/-25/-16 -34/-22/-16 -35/-21/-16 -26/-18/-16 
f -40/-6/-33 -43/-12/-33 -30/-10/-33 
f -30/-10/-33 -26/-9/-33 -40/-6/-33 
f -43/-12/-10 -31/-13/-10 -29/-11/-10 
f -42/-38/-28 -34/-34/-28 -28/-1/-28 
f -36/-37/-17 -42/-38/-17 -28/-1/-17 
f -25/-60/-9 -24/-57/-9 -23/-58/-9 -22/-59/-9 
f -21/-56/-8 -20/-53/-8 -19/-54/-8 -18/-55/-8 
f -17/-52/-7 -25/-50/-7 -44/-51/-7 
f -25/-50/-7 -17/-52/-7 -24/-49/-7 
f -16/-47/-7 -15/-48/-7 -17/-52/-7 -44/-51/-7 
f -14/-46/-7 -13/-45/-7 -15/-48/-7 -16/-47/-7 
f -14/-46/-7 -12/-43/-7 -11/-44/-7 -13/-45/-7 
f -25/-42/-6 -37/-40/-6 -44/-41/-6 
f -37/-40/-6 -25/-42/-6 -22/-39/-6 
f -37/-40/-33 -36/-37/-33 -16/-38/-33 -44/-41/-6 
f -16/-38/-33 -10/-34/-33 -9/-35/-33 -14/-36/-6 
f -8/-32/-6 -12/-33/-6 -14/-36/-6 -9/-35/-6 
f -22/-31/-5 -7/-29/-5 -37/-30/-5 
f -7/-29/-5 -22/-31/-5 -23/-28/-5 
f -37/-30/-5 -6/-26/-5 -36/-27/-5 
f -6/-26/-5 -37/-30/-5 -7/-29/-5 
f -5/-25/-5 -10/-22/-5 -4/-23/-5 -3/-24/-5 
f -2/-19/-5 -8/-20/-5 -9/-21/-5 -1/-18/-5 
f -23/-17/-28 -17/-15/-28 -7/-16/-28 
f -17/-15/-28 -23/-17/-28 -24/-14/-28 
f -7/-16/-28 -15/-12/-28 -6/-13/-28 
f -15/-12/-4 -7/-16/-4 -17/-15/-4 
f -3/-11/-4 -15/-12/-4 -5/-10/-4 
f -1/-9/-4 -11/-7/-4 -2/-8/-4 
f -11/-7/-4 -1/-9/-4 -13/-6/-4 
f -11/-4/-3 -12/-5/-3 -20/-53/-3 -21/-56/-3 
f -19/-54/-11 -20/-53/-11 -12/-5/-11 -8/-3/-11 
f -8/-3/-2 -18/-55/-2 -19/-54/-2 
f -18/-55/-2 -8/-3/-2 -2/-2/-2 
f -2/-2/-13 -21/-56/-13 -18/-55/-13 
f -21/-56/-13 -2/-2/-13 -11/-4/-13 
f -6/-26/-5 -3/-24/-5 -4/-23/-5 -36/-27/-5 
f -1/-18/-5 -9/-21/-5 -10/-22/-5 -5/-25/-5 
f -13/-6/-28 -5/-10/-28 -15/-12/-28 
f -5/-10/-28 -13/-6/-28 -1/-9/-28 
f -15/-12/-1 -3/-11/-1 -6/-13/-1 
f -16/-38/-33 -4/-1/-33 -10/-34/-33 
f -36/-37/-6 -4/-1/-6 -16/-38/-6 
# 39 polygons - 48 triangles

