# 3ds Max Wavefront OBJ Exporter v0.97b - (c)2007 guruware
# ŽŽœšµÄÎÄŒþ:10.07.2018 17:40:41

mtllib hair.mtl

#
# object hair01
#

v  22.5460 152.1868 -11.2730
v  22.5460 146.5502 -11.2730
v  22.5460 146.5502 -16.9096
v  22.5460 180.3695 -25.4711
v  22.5460 152.1868 -25.4711
v  -22.5463 152.1867 -25.4711
v  -22.5464 180.3694 -25.4711
v  -22.5463 152.1868 -11.2730
v  -22.5463 146.5502 -16.9096
v  -22.5463 146.5502 -11.2730
v  -16.9098 174.7329 25.4712
v  -22.5464 174.7329 25.4712
v  -22.5464 169.0964 25.4712
v  -16.9098 169.0964 25.4712
v  22.5460 183.2946 22.5462
v  22.5460 183.2945 -22.5461
v  -0.0002 183.2945 -22.5461
v  -0.0002 183.2945 22.5462
v  -22.5463 146.5502 -22.5461
v  -22.5463 152.1867 -22.5461
v  22.5460 152.1868 -22.5461
v  -22.5463 140.9137 -22.5461
v  22.5460 140.9137 -22.5461
v  -22.5463 140.9137 -16.9096
v  22.5460 140.9137 -16.9096
v  25.4710 180.3695 22.5462
v  25.4710 169.0965 22.5462
v  25.4710 169.0965 16.9097
v  25.4710 180.3695 -22.5461
v  -25.4714 169.0964 16.9097
v  -25.4714 180.3694 -22.5461
v  -25.4714 163.4598 -5.6365
v  -25.4714 163.4599 16.9097
v  -25.4713 152.1867 -22.5461
v  -25.4713 152.1868 -5.6365
v  -16.9098 183.2945 -22.5461
v  -22.5464 183.2945 -22.5461
v  -22.5464 183.2945 22.5462
v  -16.9098 183.2945 22.5462
v  -0.0002 187.1945 22.5462
v  -0.0002 187.1945 -22.5461
v  -16.9098 187.1945 -22.5461
v  -16.9098 187.1945 22.5462
v  16.9094 174.7330 25.4712
v  16.9094 169.0965 25.4712
v  22.5460 169.0965 25.4712
v  22.5460 180.3695 25.4712
v  -0.0002 180.3695 25.4712
v  -0.0002 174.7330 25.4712
v  16.9094 174.7330 22.5462
v  16.9094 169.0964 22.5462
v  22.5460 169.0965 22.5462
v  -22.5463 152.1868 -5.6365
v  -22.5464 163.4598 -5.6365
v  -22.5464 169.0964 22.5462
v  -16.9098 169.0964 22.5462
v  -16.9098 174.7329 22.5462
v  -22.5464 180.3695 22.5462
v  -0.0002 180.3695 22.5462
v  25.4710 152.1868 -22.5461
v  25.4710 152.1868 -5.6365
v  22.5460 180.3695 -22.5461
v  -22.5464 169.0964 16.9097
v  -25.4714 169.0964 22.5462
v  -25.4714 180.3695 22.5462
v  22.5460 180.3695 22.5462
v  22.5460 169.0964 16.9097
v  22.5460 163.4599 5.6366
v  22.5460 163.4599 0.0001
v  25.4710 163.4599 -5.6365
v  25.4710 163.4599 16.9097
v  22.5460 163.4599 11.2732
v  22.5460 152.1868 -5.6365
v  22.5460 163.4599 -5.6365
v  22.5460 163.4599 16.9097
v  -22.5464 180.3694 -22.5461
v  -22.5464 163.4599 0.0001
v  -22.5464 163.4599 16.9097
v  -22.5464 163.4599 11.2731
v  -22.5464 180.3695 25.4712
v  -22.5464 174.7329 28.3962
v  -5.6367 174.7330 28.3962
v  -0.0002 174.7330 28.3962
v  -0.0002 183.0429 28.3962
v  -22.5464 187.1692 25.4712
v  -22.5464 187.1692 28.3962
v  -0.0002 187.1693 28.3962
v  -0.0002 187.1693 25.4712
v  -22.5464 183.0429 28.3962
v  -11.2733 166.9329 31.3212
v  -11.2733 166.9329 28.3962
v  -5.6367 166.9329 28.3962
v  -5.6367 166.9329 31.3212
v  -5.6367 174.7330 31.3212
v  -0.0002 174.7330 31.3212
v  -0.0002 183.0429 31.3212
v  -22.5464 170.8329 31.3212
v  -22.5464 170.8329 28.3962
v  -22.5464 183.0429 31.3212
v  -11.2733 163.0329 28.3962
v  -11.2733 163.0329 31.3212
v  -25.4714 170.8329 28.3962
v  -25.4714 163.0329 28.3962
v  -25.4714 163.0329 31.3212
v  -25.4714 170.8329 31.3212
v  -22.5463 152.1868 0.0001
v  -22.5463 138.7750 -22.5461
v  22.5460 138.7750 -22.5461
v  21.5822 135.2771 -21.4079
v  -21.5825 135.2771 -21.4079
v  22.5460 152.1868 0.0001
v  22.5460 138.7750 -16.9096
v  21.5822 135.2771 -16.9100
v  22.5460 140.9137 -11.2730
v  22.5460 146.5502 -5.6365
v  -22.5463 138.7750 -16.9096
v  -22.5463 140.9137 -11.2730
v  -22.5463 146.5502 -5.6365
v  -22.5464 163.4599 5.6366
v  22.5460 157.8233 16.9097
v  22.5460 157.8233 11.2732
v  -22.5463 157.8233 11.2732
v  -22.5463 157.8233 16.9097
v  -21.5825 135.2771 -16.9100
# 124 vertices

vn 1.0000 0.0000 -0.0000
vn 0.0000 0.0000 -1.0000
vn -1.0000 0.0000 -0.0000
vn 0.0000 0.0000 1.0000
vn 0.0000 1.0000 -0.0000
vn 0.0000 -1.0000 -0.0000
vn 0.0000 0.2425 -0.9701
vn 0.0000 -0.1427 -0.9898
vn 0.0000 -0.3094 -0.9509
vn 0.9641 -0.2657 -0.0000
vn 0.9928 -0.1197 -0.0000
vn 0.9910 -0.1340 -0.0000
vn 0.9641 -0.2656 -0.0000
vn -0.9928 -0.1197 -0.0000
vn -0.9910 -0.1340 -0.0000
vn -0.9641 -0.2657 -0.0000
# 16 vertex normals

vt 0.1749 0.0956 0.0000
vt 0.1749 0.0644 0.0000
vt 0.1992 0.0644 0.0000
vt 0.2600 0.2707 0.0000
vt 0.2600 0.1145 0.0000
vt 0.4832 0.1145 0.0000
vt 0.4832 0.2707 0.0000
vt 0.5672 0.0945 0.0000
vt 0.5428 0.0633 0.0000
vt 0.5672 0.0633 0.0000
vt 0.7676 0.0582 0.0000
vt 0.7397 0.0582 0.0000
vt 0.7397 0.0269 0.0000
vt 0.7676 0.0269 0.0000
vt 0.9629 0.1282 0.0000
vt 0.9629 0.3228 0.0000
vt 0.8513 0.3228 0.0000
vt 0.8513 0.1282 0.0000
vt 0.4832 0.0663 0.0000
vt 0.4832 0.0975 0.0000
vt 0.2600 0.0975 0.0000
vt 0.4832 0.0351 0.0000
vt 0.2600 0.0351 0.0000
vt 0.5185 0.0633 0.0000
vt 0.5185 0.0320 0.0000
vt 0.5428 0.0320 0.0000
vt 0.2235 0.0332 0.0000
vt 0.2235 0.0956 0.0000
vt 0.1992 0.0332 0.0000
vt 0.0292 0.2709 0.0000
vt 0.0292 0.2084 0.0000
vt 0.0535 0.2084 0.0000
vt 0.2237 0.2709 0.0000
vt 0.6888 0.2081 0.0000
vt 0.5185 0.2705 0.0000
vt 0.5915 0.1768 0.0000
vt 0.6888 0.1768 0.0000
vt 0.5185 0.1144 0.0000
vt 0.5915 0.1144 0.0000
vt 0.5185 0.0945 0.0000
vt 0.5189 0.3398 0.0000
vt 0.5189 0.3119 0.0000
vt 0.7134 0.3119 0.0000
vt 0.7134 0.3398 0.0000
vt 0.7136 0.4385 0.0000
vt 0.5191 0.4385 0.0000
vt 0.5191 0.3618 0.0000
vt 0.7136 0.3618 0.0000
vt 0.9350 0.0583 0.0000
vt 0.9350 0.0270 0.0000
vt 0.9629 0.0270 0.0000
vt 0.9629 0.0895 0.0000
vt 0.8513 0.0895 0.0000
vt 0.8513 0.0583 0.0000
vt 0.9351 0.0270 0.0000
vt 0.9351 0.0583 0.0000
vt 0.9183 0.0413 0.0000
vt 0.9182 0.0115 0.0000
vt 0.9629 0.0271 0.0000
vt 0.9350 0.0271 0.0000
vt 0.9350 0.0103 0.0000
vt 0.9629 0.0103 0.0000
vt 0.6108 0.1143 0.0000
vt 0.6108 0.1576 0.0000
vt 0.5915 0.1143 0.0000
vt 0.7677 0.0269 0.0000
vt 0.7398 0.0269 0.0000
vt 0.7398 0.0101 0.0000
vt 0.7677 0.0101 0.0000
vt 0.7846 0.0117 0.0000
vt 0.7846 0.0416 0.0000
vt 0.7677 0.0582 0.0000
vt 0.7677 0.0270 0.0000
vt 0.7674 0.1283 0.0000
vt 0.7395 0.1067 0.0000
vt 0.8511 0.1067 0.0000
vt 0.8511 0.1283 0.0000
vt 0.1750 0.0956 0.0000
vt 0.2236 0.0956 0.0000
vt 0.2236 0.1149 0.0000
vt 0.1507 0.1149 0.0000
vt 0.2431 0.1147 0.0000
vt 0.2431 0.2708 0.0000
vt 0.2237 0.2708 0.0000
vt 0.2237 0.1147 0.0000
vt 0.7081 0.1887 0.0000
vt 0.7341 0.1887 0.0000
vt 0.7130 0.2080 0.0000
vt 0.6887 0.2080 0.0000
vt 0.7326 0.2706 0.0000
vt 0.7133 0.2706 0.0000
vt 0.7133 0.2081 0.0000
vt 0.7326 0.2081 0.0000
vt 0.2236 0.2708 0.0000
vt 0.2236 0.2901 0.0000
vt 0.0290 0.2901 0.0000
vt 0.0290 0.2708 0.0000
vt 0.0291 0.2083 0.0000
vt 0.0291 0.2708 0.0000
vt 0.0098 0.2708 0.0000
vt 0.0098 0.2083 0.0000
vt 0.0535 0.2083 0.0000
vt 0.0292 0.2083 0.0000
vt 0.0099 0.1934 0.0000
vt 0.0342 0.1934 0.0000
vt 0.1024 0.1579 0.0000
vt 0.1170 0.1579 0.0000
vt 0.1510 0.1772 0.0000
vt 0.0537 0.1772 0.0000
vt 0.0781 0.1579 0.0000
vt 0.1316 0.1146 0.0000
vt 0.1509 0.1146 0.0000
vt 0.1509 0.1770 0.0000
vt 0.1316 0.1578 0.0000
vt 0.1507 0.0956 0.0000
vt 0.0342 0.1935 0.0000
vt 0.0342 0.1657 0.0000
vt 0.0535 0.1772 0.0000
vt 0.0537 0.1579 0.0000
vt 0.7134 0.2900 0.0000
vt 0.5188 0.2900 0.0000
vt 0.5188 0.2707 0.0000
vt 0.7134 0.2707 0.0000
vt 0.6254 0.1576 0.0000
vt 0.5914 0.1769 0.0000
vt 0.5672 0.0946 0.0000
vt 0.5915 0.0946 0.0000
vt 0.5915 0.1139 0.0000
vt 0.6887 0.1576 0.0000
vt 0.6887 0.1769 0.0000
vt 0.6644 0.1576 0.0000
vt 0.6888 0.1769 0.0000
vt 0.7081 0.1572 0.0000
vt 0.5187 0.2705 0.0000
vt 0.4994 0.2705 0.0000
vt 0.4994 0.1144 0.0000
vt 0.5187 0.1144 0.0000
vt 0.5186 0.1139 0.0000
vt 0.5186 0.0946 0.0000
vt 0.4832 0.2874 0.0000
vt 0.4832 0.3090 0.0000
vt 0.4553 0.3090 0.0000
vt 0.7135 0.2901 0.0000
vt 0.7135 0.3117 0.0000
vt 0.5189 0.3117 0.0000
vt 0.5189 0.2901 0.0000
vt 0.3716 0.3090 0.0000
vt 0.7395 0.1283 0.0000
vt 0.4829 0.2706 0.0000
vt 0.4829 0.1144 0.0000
vt 0.4997 0.1144 0.0000
vt 0.4997 0.2706 0.0000
vt 0.2600 0.3090 0.0000
vt 0.2600 0.2874 0.0000
vt 0.9629 0.1065 0.0000
vt 0.9629 0.1281 0.0000
vt 0.8513 0.1281 0.0000
vt 0.8513 0.1065 0.0000
vt 0.2234 0.3115 0.0000
vt 0.0289 0.3115 0.0000
vt 0.0289 0.2899 0.0000
vt 0.2234 0.2899 0.0000
vt 0.2431 0.2707 0.0000
vt 0.2431 0.1146 0.0000
vt 0.2599 0.1146 0.0000
vt 0.2599 0.2707 0.0000
vt 0.2600 0.1146 0.0000
vt 0.2600 0.0978 0.0000
vt 0.4832 0.0978 0.0000
vt 0.4832 0.1146 0.0000
vt 0.4832 0.2705 0.0000
vt 0.4832 0.2873 0.0000
vt 0.2600 0.2873 0.0000
vt 0.2600 0.2705 0.0000
vt 0.8514 0.0581 0.0000
vt 0.7677 0.0581 0.0000
vt 0.9351 0.0581 0.0000
vt 0.9629 0.1064 0.0000
vt 0.8513 0.1064 0.0000
vt 0.8513 0.0896 0.0000
vt 0.9629 0.0896 0.0000
vt 0.7398 0.1067 0.0000
vt 0.7398 0.0899 0.0000
vt 0.8514 0.0899 0.0000
vt 0.8514 0.1067 0.0000
vt 0.7230 0.0269 0.0000
vt 0.7398 0.0582 0.0000
vt 0.7230 0.0894 0.0000
vt 0.7398 0.0894 0.0000
vt 0.9799 0.0270 0.0000
vt 0.9799 0.0895 0.0000
vt 0.9631 0.0895 0.0000
vt 0.9631 0.0270 0.0000
vt 0.0577 0.4602 0.0000
vt 0.0409 0.4602 0.0000
vt 0.0409 0.4323 0.0000
vt 0.0577 0.3765 0.0000
vt 0.0409 0.3486 0.0000
vt 0.0577 0.3486 0.0000
vt 0.2041 0.3315 0.0000
vt 0.2041 0.3147 0.0000
vt 0.2354 0.3147 0.0000
vt 0.2556 0.3315 0.0000
vt 0.3125 0.4601 0.0000
vt 0.2957 0.4601 0.0000
vt 0.2957 0.3485 0.0000
vt 0.3125 0.3485 0.0000
vt 0.2041 0.4771 0.0000
vt 0.2556 0.4771 0.0000
vt 0.2354 0.4939 0.0000
vt 0.2041 0.4939 0.0000
vt 0.2784 0.3147 0.0000
vt 0.2784 0.3315 0.0000
vt 0.3557 0.3483 0.0000
vt 0.3557 0.4600 0.0000
vt 0.3126 0.4600 0.0000
vt 0.3126 0.3483 0.0000
vt 0.2784 0.4939 0.0000
vt 0.2784 0.4771 0.0000
vt 0.1440 0.3764 0.0000
vt 0.1608 0.3764 0.0000
vt 0.1608 0.4043 0.0000
vt 0.1441 0.3901 0.0000
vt 0.2042 0.3766 0.0000
vt 0.1874 0.3599 0.0000
vt 0.1874 0.3320 0.0000
vt 0.2042 0.3487 0.0000
vt 0.2556 0.3483 0.0000
vt 0.2041 0.3483 0.0000
vt 0.1825 0.4602 0.0000
vt 0.1930 0.4777 0.0000
vt 0.2556 0.4602 0.0000
vt 0.1609 0.3765 0.0000
vt 0.1609 0.3597 0.0000
vt 0.1874 0.3598 0.0000
vt 0.2041 0.3765 0.0000
vt 0.1008 0.4042 0.0000
vt 0.1224 0.4042 0.0000
vt 0.0791 0.4600 0.0000
vt 0.0575 0.4600 0.0000
vt 0.0575 0.3763 0.0000
vt 0.1008 0.3763 0.0000
vt 0.1609 0.4043 0.0000
vt 0.1393 0.4043 0.0000
vt 0.1242 0.3901 0.0000
vt 0.1897 0.4964 0.0000
vt 0.1393 0.4964 0.0000
vt 0.1393 0.4796 0.0000
vt 0.1825 0.4796 0.0000
vt 0.1826 0.4796 0.0000
vt 0.1826 0.4603 0.0000
vt 0.1224 0.4793 0.0000
vt 0.0791 0.4793 0.0000
vt 0.1392 0.4044 0.0000
vt 0.1392 0.4795 0.0000
vt 0.1224 0.4795 0.0000
vt 0.1224 0.4044 0.0000
vt 0.1393 0.4044 0.0000
vt 0.2557 0.4602 0.0000
vt 0.2557 0.3486 0.0000
vt 0.2725 0.3486 0.0000
vt 0.2725 0.4602 0.0000
vt 0.2956 0.3486 0.0000
vt 0.2956 0.4602 0.0000
vt 0.2728 0.4602 0.0000
vt 0.2728 0.3486 0.0000
vt 0.5189 0.3615 0.0000
vt 0.5189 0.3399 0.0000
vt 0.7134 0.3399 0.0000
vt 0.7134 0.3615 0.0000
vt 0.7674 0.1504 0.0000
vt 0.7674 0.1288 0.0000
vt 0.8511 0.1288 0.0000
vt 0.8511 0.1504 0.0000
vt 0.7136 0.4384 0.0000
vt 0.7136 0.4600 0.0000
vt 0.5191 0.4600 0.0000
vt 0.5191 0.4384 0.0000
vt 0.3716 0.3091 0.0000
vt 0.4553 0.3091 0.0000
vt 0.4553 0.3307 0.0000
vt 0.3716 0.3307 0.0000
vt 0.1609 0.4044 0.0000
vt 0.2556 0.3486 0.0000
vt 0.2041 0.3486 0.0000
vt 0.7131 0.2081 0.0000
vt 0.7131 0.2705 0.0000
vt 0.1508 0.1772 0.0000
vt 0.1508 0.1148 0.0000
vt 0.2237 0.1148 0.0000
vt 0.6253 0.1143 0.0000
vt 0.6253 0.1576 0.0000
vt 0.6109 0.1576 0.0000
vt 0.6109 0.1143 0.0000
vt 0.4831 0.0238 0.0000
vt 0.2599 0.0238 0.0000
vt 0.2647 0.0054 0.0000
vt 0.4783 0.0054 0.0000
vt 0.1169 0.1578 0.0000
vt 0.1168 0.1145 0.0000
vt 0.1315 0.1145 0.0000
vt 0.2186 0.0037 0.0000
vt 0.2235 0.0219 0.0000
vt 0.1992 0.0219 0.0000
vt 0.1992 0.0037 0.0000
vt 0.1992 0.0643 0.0000
vt 0.1748 0.0643 0.0000
vt 0.1748 0.0332 0.0000
vt 0.1505 0.0647 0.0000
vt 0.1748 0.0647 0.0000
vt 0.1748 0.0955 0.0000
vt 0.1505 0.0955 0.0000
vt 0.5429 0.0321 0.0000
vt 0.5185 0.0321 0.0000
vt 0.5185 0.0208 0.0000
vt 0.5429 0.0208 0.0000
vt 0.5671 0.0320 0.0000
vt 0.5671 0.0634 0.0000
vt 0.5429 0.0634 0.0000
vt 0.5429 0.0320 0.0000
vt 0.5672 0.0632 0.0000
vt 0.5915 0.0632 0.0000
vt 0.6400 0.1576 0.0000
vt 0.0538 0.1267 0.0000
vt 0.0781 0.1267 0.0000
vt 0.0538 0.1579 0.0000
vt 0.6644 0.1263 0.0000
vt 0.6887 0.1263 0.0000
vt 0.4831 0.0351 0.0000
vt 0.2599 0.0351 0.0000
vt 0.5234 0.0027 0.0000
vt 0.5428 0.0030 0.0000
# 332 texture coords

g hair01
usemtl Material__25
s off
f -124/-332/-16 -123/-331/-16 -122/-330/-16 
f -121/-329/-15 -120/-328/-15 -119/-327/-15 -118/-326/-15 
f -117/-325/-14 -116/-324/-14 -115/-323/-14 
f -114/-322/-13 -113/-321/-13 -112/-320/-13 -111/-319/-13 
f -110/-318/-12 -109/-317/-12 -108/-316/-12 -107/-315/-12 
f -106/-314/-14 -105/-313/-15 -104/-312/-15 -103/-311/-15 
f -103/-311/-15 -104/-312/-15 -102/-310/-15 
f -116/-324/-14 -106/-309/-14 -103/-308/-14 -101/-307/-14 
f -102/-306/-16 -104/-305/-16 -122/-330/-16 -100/-304/-16 
f -122/-330/-16 -104/-305/-16 -124/-332/-16 
f -99/-303/-16 -98/-302/-16 -97/-301/-16 -96/-300/-16 
f -95/-299/-14 -94/-298/-14 -93/-297/-14 -92/-296/-14 
f -93/-297/-14 -94/-298/-14 -91/-295/-14 -90/-294/-14 
f -105/-293/-14 -106/-309/-14 -116/-324/-14 -117/-325/-14 
f -89/-292/-12 -88/-291/-12 -87/-290/-12 -86/-289/-12 
f -85/-288/-12 -84/-287/-12 -83/-286/-12 -82/-285/-12 
f -81/-284/-13 -80/-283/-13 -79/-282/-13 -78/-281/-13 
f -77/-280/-13 -76/-279/-13 -81/-284/-13 -78/-281/-13 
f -80/-278/-14 -81/-277/-14 -75/-276/-14 -74/-275/-14 
f -79/-274/-11 -80/-273/-11 -74/-272/-11 -73/-271/-11 
f -72/-270/-13 -71/-269/-13 -93/-297/-13 -90/-268/-13 
f -111/-267/-11 -112/-266/-11 -70/-265/-11 -69/-264/-11 
f -69/-263/-16 -68/-262/-16 -114/-261/-16 -111/-260/-16 
f -86/-259/-13 -67/-258/-13 -66/-257/-13 -107/-256/-13 
f -124/-255/-11 -104/-254/-11 -65/-253/-11 -64/-252/-11 
f -104/-251/-15 -63/-250/-15 -96/-249/-15 -65/-248/-15 
f -62/-247/-11 -70/-246/-11 -61/-245/-11 -95/-244/-11 
f -67/-243/-13 -60/-242/-13 -61/-241/-13 -70/-240/-13 
f -96/-239/-12 -63/-238/-12 -59/-237/-12 -99/-236/-12 
f -98/-235/-13 -99/-234/-13 -59/-233/-13 -73/-232/-13 
f -97/-231/-11 -98/-230/-11 -73/-229/-11 -58/-228/-11 
f -57/-227/-11 -56/-226/-11 -55/-225/-11 -54/-224/-11 
f -57/-227/-11 -54/-224/-11 -53/-223/-11 
f -52/-222/-13 -64/-221/-13 -55/-220/-13 -51/-219/-13 
f -52/-218/-11 -124/-255/-11 -64/-252/-11 
f -58/-217/-13 -50/-216/-13 -54/-215/-13 -97/-301/-13 
f -50/-214/-11 -53/-223/-11 -54/-224/-11 
f -67/-213/-12 -49/-212/-12 -94/-211/-12 -60/-210/-12 
f -71/-269/-11 -48/-209/-11 -93/-208/-11 
f -117/-207/-11 -72/-206/-11 -90/-205/-11 
f -47/-204/-11 -92/-203/-11 -46/-202/-11 
f -92/-201/-13 -47/-200/-13 -62/-247/-13 -95/-299/-13 
f -94/-199/-15 -49/-198/-15 -105/-197/-15 -91/-196/-15 
f -117/-207/-11 -90/-205/-11 -91/-195/-11 -105/-194/-11 
f -49/-193/-15 -88/-192/-15 -89/-191/-15 
f -67/-190/-14 -87/-189/-14 -88/-188/-14 -49/-187/-14 
f -49/-193/-15 -89/-191/-15 -108/-186/-15 
f -67/-258/-13 -86/-259/-13 -87/-185/-13 
f -118/-184/-14 -119/-183/-14 -105/-182/-14 -49/-181/-14 
f -108/-186/-15 -109/-180/-15 -63/-179/-15 -49/-193/-15 
f -59/-178/-13 -110/-177/-13 -107/-176/-13 -66/-175/-13 
f -109/-174/-16 -110/-173/-16 -59/-172/-16 -63/-171/-16 
f -63/-170/-16 -104/-169/-16 -120/-168/-16 -121/-167/-16 
f -120/-166/-11 -104/-165/-11 -105/-164/-11 -119/-163/-11 
f -118/-162/-12 -49/-161/-12 -63/-160/-12 -121/-159/-12 
f -76/-158/-10 -114/-157/-11 -75/-276/-11 -81/-156/-11 
f -75/-276/-11 -114/-157/-11 -68/-262/-11 
f -59/-155/-12 -66/-154/-12 -77/-153/-12 -78/-152/-12 
f -67/-151/-12 -45/-150/-12 -77/-149/-12 -66/-148/-12 
f -70/-147/-14 -112/-266/-14 -113/-146/-14 -67/-145/-14 
f -67/-145/-14 -113/-146/-14 -45/-144/-14 
f -73/-143/-16 -59/-142/-16 -78/-141/-16 -79/-140/-16 
f -44/-139/-11 -113/-138/-11 -114/-137/-11 -43/-136/-11 
f -43/-136/-11 -114/-137/-11 -76/-135/-11 -42/-134/-11 
f -42/-133/-16 -76/-132/-16 -77/-131/-16 -41/-130/-16 
f -40/-129/-12 -39/-128/-12 -38/-127/-12 -37/-126/-12 
f -44/-125/-14 -36/-124/-14 -45/-123/-14 -113/-122/-14 
f -37/-121/-16 -38/-120/-16 -41/-130/-16 -77/-131/-16 
f -77/-119/-15 -45/-118/-15 -40/-117/-15 -37/-116/-15 
f -40/-115/-14 -45/-123/-14 -36/-124/-14 -39/-114/-14 
f -35/-113/-11 -34/-112/-11 -33/-111/-11 -32/-110/-11 
f -31/-109/-11 -43/-108/-11 -42/-107/-11 -30/-106/-11 
f -29/-105/-16 -30/-104/-16 -42/-133/-16 -41/-130/-16 
f -28/-103/-14 -36/-124/-14 -44/-125/-14 -27/-102/-14 
f -26/-101/-14 -36/-124/-14 -28/-103/-14 
f -32/-100/-16 -33/-99/-16 -43/-98/-16 -31/-97/-16 
f -34/-96/-15 -25/-95/-15 -27/-94/-15 -44/-93/-15 
f -43/-92/-15 -33/-91/-15 -34/-96/-15 -44/-93/-15 
f -34/-110/-16 -35/-90/-16 -24/-89/-16 -25/-88/-16 
f -23/-87/-14 -22/-86/-14 -21/-85/-14 -20/-84/-14 
f -23/-87/-12 -20/-83/-12 -28/-82/-12 -27/-102/-12 
f -22/-81/-15 -23/-80/-15 -27/-94/-15 -25/-95/-15 
f -24/-79/-11 -21/-78/-11 -22/-77/-11 -25/-76/-11 
f -28/-103/-13 -20/-84/-13 -21/-85/-13 -24/-75/-13 
f -26/-74/-12 -29/-73/-12 -41/-72/-12 -36/-71/-12 
f -38/-70/-13 -39/-69/-13 -36/-68/-13 -41/-67/-13 
f -83/-66/-14 -89/-65/-14 -86/-64/-14 -82/-63/-14 
f -82/-62/-13 -86/-61/-13 -107/-60/-13 -85/-59/-13 
f -85/-58/-16 -107/-57/-16 -108/-56/-16 -84/-55/-16 
f -108/-54/-15 -89/-53/-15 -83/-52/-15 -84/-51/-15 
f -35/-50/-15 -32/-100/-13 -31/-97/-15 -29/-49/-13 
f -31/-97/-15 -30/-48/-13 -29/-49/-13 
f -35/-50/-15 -29/-49/-13 -26/-101/-13 -24/-75/-13 
f -24/-75/-13 -26/-101/-13 -28/-103/-13 
f -95/-299/-14 -61/-47/-14 -60/-46/-14 -94/-298/-14 
f -55/-45/-16 -64/-44/-16 -65/-43/-16 -96/-300/-16 
f -55/-45/-16 -96/-300/-16 -97/-301/-16 -54/-215/-16 
f -19/-42/-14 -48/-41/-14 -71/-40/-14 -72/-39/-14 
f -18/-38/-9 -17/-37/-9 -16/-36/-8 -15/-35/-8 
f -51/-219/-16 -56/-34/-16 -14/-33/-16 -52/-32/-16 
f -16/-31/-7 -17/-30/-6 -13/-29/-5 -12/-28/-4 
f -122/-27/-16 -123/-26/-16 -11/-25/-16 -100/-304/-16 
f -10/-24/-16 -123/-23/-16 -124/-22/-16 -52/-21/-16 
f -101/-20/-14 -103/-19/-14 -18/-18/-3 -9/-17/-2 
f -8/-16/-14 -115/-15/-14 -116/-14/-14 -101/-13/-14 
f -117/-207/-14 -115/-12/-14 -7/-11/-14 -72/-206/-14 
f -56/-226/-11 -51/-219/-11 -55/-225/-11 
f -6/-10/-11 -46/-202/-11 -92/-203/-11 -48/-209/-11 
f -48/-209/-11 -92/-203/-11 -93/-208/-11 
f -5/-9/-16 -4/-8/-16 -53/-223/-16 -50/-7/-16 
f -46/-202/-14 -3/-6/-14 -2/-5/-14 -47/-204/-14 
f -103/-4/-15 -102/-3/-15 -17/-37/-9 -18/-38/-9 
f -13/-29/-5 -17/-30/-6 -102/-306/-16 -100/-304/-16 
f -9/-17/-2 -18/-18/-3 -15/-2/-1 -1/-1/-1 
# 94 polygons - 20 triangles

